<?xml version="1.0" encoding="UTF-8"?> <svg xmlns="http://www.w3.org/2000/svg" xmlns:xlink="http://www.w3.org/1999/xlink" id="Layer_2" data-name="Layer 2" viewBox="0 0 198.58 74"><defs><style> .cls-1 { fill: none; } .cls-1, .cls-2, .cls-3, .cls-4, .cls-5, .cls-6, .cls-7, .cls-8, .cls-9, .cls-10, .cls-11, .cls-12 { stroke-width: 0px; } .cls-2 { fill: url(#linear-gradient); } .cls-3 { fill: #6c9deb; } .cls-4 { fill: url(#linear-gradient-4); } .cls-5 { fill: url(#linear-gradient-2); } .cls-6 { fill: url(#linear-gradient-3); } .cls-7 { fill: url(#linear-gradient-8); } .cls-8 { fill: url(#linear-gradient-9); } .cls-9 { fill: url(#linear-gradient-7); } .cls-10 { fill: url(#linear-gradient-5); } .cls-11 { fill: url(#linear-gradient-6); } .cls-12 { fill: #fff; } </style><linearGradient id="linear-gradient" x1="48.2" y1="72.96" x2="11.88" y2="31.98" gradientUnits="userSpaceOnUse"><stop offset=".2" stop-color="#6c9deb"></stop><stop offset=".4" stop-color="#6999e7"></stop><stop offset=".59" stop-color="#608edd"></stop><stop offset=".78" stop-color="#527bcb"></stop><stop offset=".96" stop-color="#3f61b2"></stop><stop offset="1" stop-color="#3a5aac"></stop></linearGradient><linearGradient id="linear-gradient-2" x1="64.61" y1="54.13" x2="51.54" y2="14.73" gradientUnits="userSpaceOnUse"><stop offset="0" stop-color="#484c91"></stop><stop offset="1" stop-color="#959bfd"></stop></linearGradient><linearGradient id="linear-gradient-3" x1="74.91" y1="15.97" x2="43.27" y2="23.99" gradientUnits="userSpaceOnUse"><stop offset="0" stop-color="#633969"></stop><stop offset=".12" stop-color="#77457c"></stop><stop offset=".31" stop-color="#8e5392"></stop><stop offset=".51" stop-color="#9f5da2"></stop><stop offset=".73" stop-color="#a963ab"></stop><stop offset="1" stop-color="#ad65af"></stop></linearGradient><linearGradient id="linear-gradient-4" x1="30.67" y1="46.06" x2="45.5" y2="46.06" gradientUnits="userSpaceOnUse"><stop offset="0" stop-color="#87568d"></stop><stop offset="1" stop-color="#64568d"></stop></linearGradient><linearGradient id="linear-gradient-5" x1="22.82" y1="31.87" x2="22.82" y2="13.02" xlink:href="#linear-gradient-4"></linearGradient><linearGradient id="linear-gradient-6" x1="31.41" y1="31.87" x2="31.41" y2="13.02" xlink:href="#linear-gradient-4"></linearGradient><linearGradient id="linear-gradient-7" x1="51.55" y1="45.48" x2="48.16" y2="20.69" gradientUnits="userSpaceOnUse"><stop offset="0" stop-color="#433685"></stop><stop offset=".07" stop-color="#4c3f8e"></stop><stop offset=".71" stop-color="#9a8ddd"></stop><stop offset="1" stop-color="#b9adfd"></stop></linearGradient><linearGradient id="linear-gradient-8" x1="41.43" y1="39.99" x2="41.43" y2="39.96" xlink:href="#linear-gradient-7"></linearGradient><linearGradient id="linear-gradient-9" x1="17.63" y1="37.55" x2="34.68" y2="54.6" gradientUnits="userSpaceOnUse"><stop offset="0" stop-color="#3c4b9b"></stop><stop offset=".71" stop-color="#36509b"></stop><stop offset="1" stop-color="#32559b"></stop></linearGradient></defs><g id="Layer_2-2" data-name="Layer 2"><g><rect class="cls-1" width="198.58" height="74"></rect><g><path class="cls-12" d="M130.05,41.07l-.7.95c-2,2.7-5.11,4.25-8.51,4.25-4.57,0-8.57-3.13-9.97-7.34-.04-.15-.09-.29-.13-.43-.26-.91-.41-1.87-.41-2.85,0-5.76,4.81-10.62,10.51-10.62,3.43,0,6.41,1.58,8.38,4.44l.71,1.02,7.21-5.41-.77-.96c-3.84-4.82-9.35-7.48-15.53-7.48-9.58,0-17.34,6.37-19.15,15.09-1.71-.37-3.44-.59-5.03-.79-5.08-.64-7.47-1.16-7.47-3.14,0-1.71,1.85-3.43,5.99-3.43,2.23,0,4.12.53,5.96,1.73,1.29-2.57,3.09-4.84,5.27-6.68-3.07-1.84-6.72-2.78-10.91-2.78-8.76,0-15.36,4.94-15.36,11.49,0,9.06,8.4,10.19,14.53,11.01,4.67.63,7.53,1.12,7.53,3.2,0,2.83-3.61,3.89-6.97,3.92-3.34,0-6.72-1.55-9.26-4.25l-.8-.85-6.58,5.91.85.89c4.05,4.25,9.7,6.69,15.52,6.69,4.77,0,9.71-1.62,12.88-4.7,3.43,2.94,7.96,4.7,13,4.7,6.18,0,11.7-2.66,15.53-7.48l.78-.98-7.09-5.13Z"></path><path class="cls-12" d="M161.97,38.92c4.16-3.15,6.18-6.54,6.18-10.35,0-7.01-5.59-11.9-13.59-11.9-6.03,0-11.43,2.89-14.81,7.92l-.82,1.22,8.14,3.09.51-.79c1.55-2.4,3.95-3.77,6.59-3.77,2.93,0,5.32,1.85,5.32,4.12,0,1.52-.8,2.88-2.5,4.26l-16.73,13.21v8h27.77v-8h-15.33l9.25-7Z"></path><path class="cls-12" d="M184.5,27.68c-1.77,0-3.33.25-4.66.73l.4-3.04h14.8v-8h-22.43l-2.03,20.74h6.73l.35-.42c1.32-1.59,3.06-2.36,5.32-2.36,3.14,0,5.55,2.36,5.59,5.5.02,1.51-.55,2.93-1.62,4.01-1.13,1.15-2.7,1.78-4.41,1.78-2.78,0-5.25-1.08-6.78-2.95l-.75-.92-6.95,5.9,1.03.89c4.15,3.61,8.02,5.08,13.35,5.08,9.71,0,14.79-7,14.79-13.91,0-8.47-6.55-13.04-12.72-13.04Z"></path><g><path class="cls-2" d="M30.99,49.82c-.56,1.63-.41,3.33.78,5.11-13.28-4.28-16.79-10.76-12.97-17.67.75-1.36,1.86-2.67,3.18-3.93,3.16-6.06,8.95-11.96,3.83-15.81C16.94,25.95,1.61,35.6.83,44.72c-.95,11,13.68,19.07,47.37,20.95-8.48-4.04-8.71-8.76-5.24-13.84-4.75-.31-8.73-.99-11.96-2.01Z"></path><path class="cls-5" d="M41.33,41.52c6.32-9.88,25.74-23.13,17.82-29.91,0,0,16.05-.13,16.73,10.29.72,11.23-27.46,25.06-18.09,34.1-15.97-2.92-20.71-7.83-16.45-14.49Z"></path><path class="cls-1" d="M20.4,40.89c-.61-2.45.26-5.02,1.58-7.56-1.32,1.26-2.43,2.57-3.18,3.93-3.82,6.92-.31,13.4,12.97,17.67-1.19-1.78-1.34-3.48-.78-5.11-6.19-1.95-9.64-5.08-10.59-8.93Z"></path><path class="cls-1" d="M42.39,39.34c6.55-4.3,13.56-8.68,14.35-13.85,1.57-10.32-14.14-13.63-14.14-13.63,2,2.64.87,5.16-1.76,7.68,2.22,1.09,4.2,2.53,5.6,4.47,3.38,4.67-1.05,10.16-4.05,15.33Z"></path><path class="cls-6" d="M25.76,1.25c9.19,3.97,7.07,9.22,1.2,15.14,3.5.18,9.2.86,13.88,3.15,2.64-2.52,3.77-5.04,1.76-7.68,0,0,15.71,3.31,14.14,13.63-.79,5.17-7.8,9.56-14.35,13.85-2.55,4.39-4.06,8.54,1.07,11.76,8.34-11.18,33.43-23.98,27.87-35C63.72,1,25.76,1.25,25.76,1.25Z"></path><path class="cls-4" d="M42.39,39.34c-5.22,3.43-10.14,6.8-11.4,10.48,3.23,1.02,6.66,2.19,11.35,2.95.16-.24.94-1.43,1.12-1.67-5.13-3.23-3.62-7.38-1.07-11.76Z"></path><g><path class="cls-10" d="M24.96,14.66c-2.59-.06-4.27.05-4.27.05,1.12.45,2.03.95,2.78,1.49.51-.52,1.01-1.03,1.49-1.54Z"></path><path class="cls-11" d="M21.98,33.33c7.59-6.25,13.04-7.89,18.86-13.79-3.83-2.59-11.25-4.77-15.88-4.88-.48.51-.97,1.02-1.49,1.54,6.92,4.89,2.45,9-1.49,17.13Z"></path></g><g><path class="cls-9" d="M42.6,11.86c2,2.65.87,5.16-1.76,7.68,2.22,1.09,4.2,2.53,5.6,4.47,3.38,4.67-1.05,10.16-4.05,15.33,6.55-4.3,13.56-8.68,14.35-13.85,1.57-10.32-14.14-13.63-14.14-13.63Z"></path><path class="cls-7" d="M41.47,39.95s-.05.03-.07.05c.02-.02.05-.03.07-.05Z"></path></g><path class="cls-8" d="M20.4,40.89c-.61-2.45.26-5.02,1.58-7.56,0,0-1.53.94-3.18,3.93-3.82,6.92-.31,13.4,12.97,17.67-1.19-1.79-1.35-3.48-.79-5.11-6.18-1.95-9.63-5.07-10.58-8.92Z"></path></g><path class="cls-3" d="M81.4,64.31c.45.48,1.07.81,1.77.81.84,0,1.43-.32,1.43-.89,0-1.33-3.85-.05-3.85-2.48,0-1.06,1.11-1.8,2.47-1.8.99,0,1.79.31,2.38.91l-.82.73c-.54-.53-1.04-.71-1.62-.71-.91,0-1.25.45-1.25.81,0,1.34,3.85,0,3.85,2.48,0,1.25-1.26,2-2.63,2-.84,0-1.81-.31-2.56-1.1l.84-.75Z"></path><path class="cls-3" d="M89,61.12h-1.75v-1.05h4.6v1.05h-1.75v4.92h-1.1v-4.92Z"></path><path class="cls-3" d="M93.19,65c.32,0,.58.26.58.58s-.26.58-.58.58-.58-.26-.58-.58.26-.58.58-.58Z"></path><path class="cls-3" d="M99.66,60.07h1.1v4.92h2.35v-1.43h1.1v2.47h-4.55v-5.97Z"></path><path class="cls-3" d="M109.01,59.95c1.79,0,3.2,1.36,3.2,3.11s-1.42,3.11-3.2,3.11-3.2-1.36-3.2-3.11,1.42-3.11,3.2-3.11ZM109.01,65.12c1.07,0,2.04-.9,2.04-2.06s-.97-2.06-2.04-2.06-2.04.9-2.04,2.06.97,2.06,2.04,2.06Z"></path><path class="cls-3" d="M114.17,60.07h1.1v3.3c0,1.09.69,1.75,1.55,1.75s1.55-.66,1.55-1.75v-3.3h1.1v3.54c0,1.38-1.05,2.56-2.65,2.56s-2.65-1.18-2.65-2.56v-3.54Z"></path><path class="cls-3" d="M121.88,60.07h1.1v5.97h-1.1v-5.97Z"></path><path class="cls-3" d="M125.78,64.31c.45.48,1.07.81,1.77.81.84,0,1.43-.32,1.43-.89,0-1.33-3.85-.05-3.85-2.48,0-1.06,1.11-1.8,2.47-1.8.99,0,1.79.31,2.38.91l-.82.73c-.54-.53-1.04-.71-1.62-.71-.91,0-1.25.45-1.25.81,0,1.34,3.85,0,3.85,2.48,0,1.25-1.26,2-2.63,2-.84,0-1.81-.31-2.56-1.1l.84-.75Z"></path><path class="cls-3" d="M141.49,62.38v3.66h-1.1v-6.09l3.85,3.78v-3.66h1.1v6.09l-3.85-3.78Z"></path><path class="cls-3" d="M150.5,59.95c1.79,0,3.2,1.36,3.2,3.11s-1.42,3.11-3.2,3.11-3.2-1.36-3.2-3.11,1.42-3.11,3.2-3.11ZM150.5,65.12c1.07,0,2.04-.9,2.04-2.06s-.97-2.06-2.04-2.06-2.04.9-2.04,2.06.97,2.06,2.04,2.06Z"></path><path class="cls-3" d="M154.96,60.07h1.19l1.45,3.65,1.46-3.65h1.19l-2.64,6.09-2.64-6.09Z"></path><path class="cls-3" d="M165.75,61.7l-.8.54v-1.15l1.9-1.14v6.09h-1.1v-4.34Z"></path><path class="cls-3" d="M172.17,60.24l-1.23,1.84c.16-.03.28-.05.49-.05,1.18,0,1.96.92,1.96,2.01,0,1.18-.82,2.12-2.21,2.12-1.48,0-2.21-1.09-2.21-1.99,0-.66.17-1.1.55-1.73l1.55-2.58,1.08.38ZM171.19,65.23c.64,0,1.16-.52,1.16-1.16s-.52-1.16-1.16-1.16-1.16.52-1.16,1.16.52,1.16,1.16,1.16Z"></path><path class="cls-3" d="M174.93,62.58h4.75v.82h-4.75v-.82Z"></path><path class="cls-3" d="M180.76,64.95l2.84-2.24c.35-.29.51-.58.51-.9,0-.53-.52-.92-1.13-.92-.55,0-1.03.29-1.32.75l-1.03-.39c.52-.78,1.37-1.29,2.41-1.29,1.38,0,2.17.87,2.17,1.87,0,.64-.37,1.17-1,1.64l-2.07,1.57v.02h3.05v.99h-4.44v-1.09Z"></path><path class="cls-3" d="M187.68,61.7l-.8.54v-1.15l1.9-1.14v6.09h-1.1v-4.34Z"></path></g></g></g></svg> 